<?xml version="1.0" encoding="UTF-8" standalone="no"?>
<svg xmlns="http://www.w3.org/2000/svg" width="1536" height="1024" viewBox="0 0 1536 1024">
 <title>VAMOS KILIMANJARO Logo</title>
 <desc>Vectorized mountain and sunrise logo with VAMOS KILIMANJARO wordmark.</desc>
 <defs>
   <linearGradient id="sunrise" x1="0" y1="1" x2="0" y2="0">
     <stop offset="0%" stop-color="#FFD21A"/>
     <stop offset="55%" stop-color="#FF9D00"/>
     <stop offset="100%" stop-color="#FF5A00"/>
   </linearGradient>
 </defs>
 <rect width="100%" height="100%" fill="#000000"/>
 <g id="sunrise" fill="url(#sunrise)" fill-rule="evenodd">
 <path d="M 832,407 831,408 834,411 845,419 852,426 864,435 865,434 867,426 870,420 868,418 850,412 833,408 Z" fill="url(#sunrise)"/>
<path d="M 1189,401 1184,403 1165,406 1160,408 1146,410 1141,412 1137,412 1132,414 1128,414 1123,416 1111,418 1110,419 1115,430 1117,439 1118,440 1121,438 1123,438 1165,417 1167,415 1188,405 1192,402 1190,401 Z" fill="url(#sunrise)"/>
<path d="M 817,358 816,359 831,371 838,378 875,407 877,406 885,393 889,389 882,385 875,383 844,369 842,369 818,359 Z" fill="url(#sunrise)"/>
<path d="M 980,352 979,353 971,353 970,354 961,355 940,362 928,368 909,382 896,396 886,411 878,429 877,435 875,439 875,444 904,466 934,486 969,507 994,520 1022,507 1036,498 1041,496 1065,480 1087,463 1092,458 1103,450 1107,448 1107,444 1101,425 1093,409 1084,396 1077,388 1062,375 1053,369 1037,361 1023,356 1015,355 1014,354 1009,354 1008,353 1001,353 1000,352 981,352 Z" fill="url(#sunrise)"/>
<path d="M 1164,345 1158,349 1091,383 1089,385 1090,387 1095,392 1099,399 1102,402 1165,346 Z" fill="url(#sunrise)"/>
<path d="M 861,312 860,313 877,336 896,365 903,373 921,360 872,321 867,316 862,313 Z" fill="url(#sunrise)"/>
<path d="M 1116,301 1057,358 1074,370 1077,367 1081,359 1089,348 1093,340 1104,324 1117,302 Z" fill="url(#sunrise)"/>
<path d="M 919,279 918,282 920,286 920,289 926,307 927,314 929,318 929,321 931,325 931,328 934,335 934,338 938,350 940,351 943,349 955,345 958,345 959,344 958,341 944,320 920,280 Z" fill="url(#sunrise)"/>
<path d="M 1057,269 1053,275 1019,343 1022,345 1029,346 1038,350 1040,347 1041,339 1046,322 1046,318 1047,317 1049,305 1050,304 1050,301 1053,292 1053,288 1058,270 Z" fill="url(#sunrise)"/>
<path d="M 987,257 985,263 985,272 984,273 984,281 983,282 983,291 982,292 982,302 981,303 981,312 980,313 980,323 979,324 979,336 978,337 978,340 979,341 999,341 1000,340 999,339 999,331 998,330 995,304 994,303 993,291 991,284 991,278 989,271 988,258 Z" fill="url(#sunrise)"/>
 </g>
 <g id="mountains-and-wordmark" fill="#FFFFFF" fill-rule="evenodd">
 <path d="M 1193,637 1192,638 1192,706 1193,707 1208,707 1209,706 1209,687 1211,685 1213,685 1218,689 1219,692 1229,707 1247,707 1248,706 1247,703 1235,684 1235,683 1244,675 1247,668 1247,655 1243,646 1236,640 1227,637 1194,637 Z M 1210,655 1211,654 1224,654 1226,655 1229,659 1229,665 1223,670 1211,670 1209,668 1210,667 1210,656 Z" fill="#FFFFFF"/>
<path d="M 1139,637 1137,640 1136,645 1129,660 1127,667 1124,672 1120,684 1117,689 1115,696 1112,701 1111,706 1112,707 1128,707 1131,702 1132,698 1134,696 1160,696 1163,699 1163,701 1166,707 1183,707 1184,705 1182,699 1180,696 1180,694 1178,691 1178,689 1176,686 1176,684 1174,681 1174,679 1172,676 1172,674 1170,671 1170,669 1168,666 1158,639 1156,637 1140,637 Z M 1146,663 1148,662 1151,667 1155,678 1154,680 1141,680 1140,679 1146,664 Z" fill="#FFFFFF"/>
<path d="M 1089,637 1088,638 1088,685 1087,687 1081,692 1078,692 1074,690 1070,686 1059,698 1059,699 1065,704 1076,708 1089,707 1097,703 1103,696 1106,687 1106,638 1105,637 1090,637 Z" fill="#FFFFFF"/>
<path d="M 993,637 992,638 992,706 993,707 1008,707 1009,706 1009,672 1011,671 1037,707 1053,707 1054,706 1054,638 1053,637 1037,637 1036,638 1036,672 1034,673 1018,651 1012,641 1008,637 994,637 Z" fill="#FFFFFF"/>
<path d="M 939,637 910,706 911,707 927,707 929,705 932,697 935,694 961,694 963,696 964,700 968,707 984,707 985,704 982,699 978,687 967,663 966,658 962,651 958,639 956,637 940,637 Z M 947,663 948,662 949,663 949,665 953,672 953,674 955,677 954,679 941,679 940,678 946,664 Z" fill="#FFFFFF"/>
<path d="M 829,637 828,638 828,706 829,707 844,707 845,706 845,701 846,700 846,696 845,695 845,678 846,676 845,674 846,673 848,674 859,694 862,697 870,697 884,674 886,673 887,674 887,706 888,707 903,707 904,706 904,638 903,637 887,637 884,640 869,667 866,670 863,667 845,637 830,637 Z" fill="#FFFFFF"/>
<path d="M 798,637 797,638 797,706 798,707 814,707 815,706 815,638 814,637 799,637 Z" fill="#FFFFFF"/>
<path d="M 739,637 737,640 738,642 738,650 737,651 737,656 738,657 738,661 737,662 737,673 738,674 737,695 738,696 738,701 737,703 739,707 786,707 787,706 787,691 786,690 758,690 756,688 756,638 755,637 740,637 Z" fill="#FFFFFF"/>
<path d="M 707,637 706,638 706,706 707,707 723,707 724,706 724,638 723,637 708,637 Z" fill="#FFFFFF"/>
<path d="M 632,637 631,638 631,706 632,707 648,707 649,706 649,687 650,685 654,682 659,687 674,707 695,707 696,706 690,699 685,691 667,668 675,658 694,638 693,637 672,637 662,647 654,657 650,660 649,659 649,638 648,637 633,637 Z" fill="#FFFFFF"/>
<path d="M 374,637 373,638 373,706 374,707 389,707 390,706 390,674 391,673 393,674 404,694 407,697 414,697 429,673 430,674 430,706 431,707 447,707 448,706 448,638 447,637 431,637 427,642 425,647 411,670 408,668 390,637 375,637 Z" fill="#FFFFFF"/>
<path d="M 319,637 315,644 315,646 312,651 312,653 306,665 302,677 298,684 296,691 289,706 290,707 307,707 312,697 312,695 314,693 341,693 343,695 345,701 349,707 365,707 366,706 365,701 362,696 360,689 356,682 356,680 353,675 351,668 348,663 348,661 337,637 320,637 Z M 327,662 328,661 331,666 331,668 335,676 334,678 321,678 320,677 326,663 Z" fill="#FFFFFF"/>
<path d="M 220,637 219,638 222,643 222,645 225,650 225,652 228,657 228,659 232,666 232,668 250,707 266,707 270,701 272,694 277,685 277,683 280,678 280,676 297,638 296,637 277,637 273,644 270,654 261,673 261,675 258,679 253,669 253,667 251,664 251,662 241,638 240,637 221,637 Z" fill="#FFFFFF"/>
<path d="M 1285,636 1271,641 1262,649 1257,658 1255,664 1254,675 1255,676 1255,681 1259,691 1268,701 1281,707 1295,708 1310,703 1320,694 1326,682 1326,679 1327,678 1327,667 1326,666 1325,659 1321,651 1312,642 1301,637 1286,636 Z M 1288,654 1289,653 1293,653 1300,656 1305,661 1308,667 1308,677 1305,683 1300,688 1293,691 1285,690 1280,687 1275,681 1273,675 1273,669 1275,663 1281,656 1287,654 Z" fill="#FFFFFF"/>
<path d="M 557,636 547,640 541,646 538,652 538,663 540,668 546,674 554,678 568,681 572,683 574,686 574,689 571,692 568,693 561,693 549,689 544,686 536,699 541,703 553,707 557,707 558,708 571,708 572,707 576,707 585,703 591,697 593,692 593,687 594,686 591,675 583,668 572,664 562,662 558,659 557,656 558,654 562,651 571,651 583,656 586,653 591,643 589,641 579,637 575,637 574,636 558,636 Z" fill="#FFFFFF"/>
<path d="M 487,636 473,641 464,649 458,660 458,663 457,664 457,680 462,692 465,696 472,702 483,707 498,708 513,703 524,693 529,682 530,666 528,659 524,651 515,642 507,638 500,636 488,636 Z M 489,654 490,653 497,653 502,655 509,662 511,667 511,677 509,682 502,689 497,691 490,691 485,689 480,685 476,677 476,667 478,662 482,657 488,654 Z" fill="#FFFFFF"/>
<path d="M 506,534 505,535 478,536 477,537 455,539 454,540 449,540 448,541 443,541 437,543 432,543 431,544 417,546 408,549 404,549 403,550 392,552 388,554 381,555 363,561 356,562 302,580 299,582 283,587 280,589 275,590 272,592 258,597 260,598 269,595 273,595 274,594 292,591 297,589 306,588 307,587 324,584 329,582 333,582 338,580 348,579 353,577 372,574 386,570 390,570 391,569 395,569 396,568 400,568 401,567 405,567 406,566 410,566 411,565 415,565 421,563 432,562 433,561 439,561 440,560 466,557 467,556 474,556 475,555 496,554 497,553 550,552 551,553 565,553 566,554 585,555 586,556 593,556 594,557 600,557 601,558 624,561 625,562 639,564 644,566 648,566 653,568 657,568 662,570 666,570 671,572 675,572 680,574 684,574 689,576 693,576 694,577 697,577 698,578 701,578 702,579 705,579 734,587 738,587 751,591 755,591 764,594 768,594 785,599 789,599 799,602 813,604 818,606 823,606 824,607 839,609 840,610 855,612 856,613 877,615 878,616 885,616 886,617 894,617 895,618 907,618 908,619 923,619 924,620 977,620 978,619 999,619 1000,618 1013,618 1014,617 1025,617 1026,616 1036,616 1037,615 1068,613 1069,612 1087,611 1088,610 1106,609 1107,608 1117,608 1118,607 1129,607 1130,606 1165,604 1166,603 1179,603 1180,602 1198,602 1199,601 1245,601 1246,602 1263,602 1264,603 1276,603 1277,604 1296,605 1297,606 1304,606 1305,607 1311,607 1312,608 1318,608 1319,609 1321,608 1306,603 1302,603 1293,600 1289,600 1288,599 1284,599 1278,597 1273,597 1272,596 1267,596 1266,595 1244,593 1243,592 1234,592 1233,591 1201,590 1200,589 1174,589 1173,590 1137,591 1136,592 1125,592 1124,593 1105,594 1104,595 1077,597 1076,598 1067,598 1066,599 1056,599 1055,600 1044,600 1043,601 1032,601 1031,602 1015,602 1014,603 994,603 993,604 964,604 963,603 944,603 943,602 919,601 918,600 899,599 898,598 891,598 890,597 883,597 882,596 869,595 862,593 849,592 848,591 843,591 842,590 813,585 808,583 799,582 798,581 747,569 743,567 708,559 696,555 692,555 674,550 665,549 664,548 646,545 645,544 634,543 628,541 622,541 621,540 615,540 614,539 608,539 607,538 601,538 600,537 592,537 591,536 569,535 568,534 507,534 Z" fill="#FFFFFF"/>
<path d="M 1156,441 1143,450 1125,465 1122,465 1112,460 1109,460 1105,462 1089,476 1067,493 1036,513 1009,527 1011,529 1027,536 1047,525 1050,522 1077,504 1078,506 1073,514 1074,516 1117,482 1118,483 1117,485 1117,492 1116,493 1116,499 1115,500 1113,515 1111,521 1111,526 1110,527 1111,529 1136,501 1137,492 1139,487 1148,475 1150,474 1164,493 1170,516 1198,548 1199,546 1198,545 1196,534 1192,524 1192,516 1191,515 1191,502 1192,501 1227,533 1270,568 1271,567 1265,552 1266,551 1275,555 1280,559 1302,570 1304,572 1306,572 1319,579 1321,579 1329,583 1357,592 1365,593 1379,597 1381,596 1346,578 1321,563 1288,541 1251,513 1241,512 1240,511 1231,511 1229,510 1195,479 1159,441 1157,441 Z" fill="#FFFFFF"/>
<path d="M 679,376 678,377 668,377 667,378 661,378 660,379 655,379 654,380 649,380 642,382 628,383 627,384 617,384 616,385 577,385 575,384 574,385 566,386 560,389 550,398 518,422 468,455 448,466 436,474 431,476 429,478 384,501 382,503 376,505 374,507 349,519 347,519 336,525 334,525 309,537 302,539 295,543 290,544 285,547 266,554 237,567 235,567 207,579 202,580 197,583 184,587 171,593 166,594 163,596 164,597 165,596 170,596 171,595 195,591 196,590 215,586 219,584 226,583 233,580 236,580 280,565 293,559 298,558 301,556 318,550 328,545 333,544 361,531 363,531 370,527 372,527 387,519 393,517 395,515 397,515 407,510 409,508 424,501 426,499 453,485 460,480 467,477 472,473 479,470 484,466 494,461 509,451 511,451 512,452 510,454 507,461 488,493 489,494 535,460 550,438 562,426 577,415 597,403 599,404 593,420 591,429 589,432 587,440 584,446 585,447 618,421 620,422 620,434 619,435 618,449 605,474 604,487 595,508 596,509 620,489 640,469 644,461 648,443 658,427 660,425 662,426 670,440 680,424 683,421 702,452 703,466 716,484 718,479 719,459 721,458 738,476 754,497 761,504 804,531 805,530 781,496 774,483 772,477 751,458 744,453 741,444 736,434 735,428 731,418 731,416 733,415 758,431 772,443 782,446 797,454 799,456 800,454 785,430 786,427 811,438 819,440 833,450 845,462 856,477 853,478 846,475 844,476 865,507 869,511 879,517 892,527 894,526 886,513 876,492 877,490 902,504 914,512 933,522 935,524 974,544 976,544 996,554 998,554 1016,562 1021,563 1024,565 1033,568 1036,568 1049,573 1057,574 1071,578 1076,578 1077,579 1083,579 1084,580 1088,580 1089,579 1091,581 1092,580 1091,579 1090,580 1088,578 1081,576 1076,573 1074,573 1069,570 1067,570 1062,567 1053,564 1046,560 1044,560 1031,553 1029,553 989,533 987,531 976,526 960,516 953,513 889,472 850,442 821,417 817,415 814,415 805,412 801,412 786,407 783,407 774,403 763,400 730,386 708,379 698,378 697,377 680,376 Z" fill="#FFFFFF"/>
 </g>
</svg>
